<svg preserveAspectRatio="none" width="100%" height="100%" overflow="visible" style="display: block;" viewBox="0 0 18 18" fill="none" xmlns="http://www.w3.org/2000/svg">
<g id="1175957644">
<path id="Union" d="M8.46973 3.21973C8.76262 2.92683 9.23738 2.92683 9.53027 3.21973L14.7803 8.46973C14.8287 8.51813 14.866 8.5732 14.8984 8.62988C14.914 8.65703 14.9303 8.68375 14.9424 8.71289C14.9631 8.76289 14.9779 8.81459 14.9873 8.86719C14.995 8.91033 15 8.95464 15 9C15 9.04472 14.9948 9.0883 14.9873 9.13086C14.9779 9.1838 14.9632 9.2358 14.9424 9.28613C14.9215 9.33649 14.895 9.3836 14.8643 9.42773C14.8393 9.46345 14.8121 9.4984 14.7803 9.53027L9.53027 14.7803C9.23741 15.0731 8.76262 15.0731 8.46973 14.7803C8.17684 14.4874 8.17686 14.0126 8.46973 13.7197L12.4395 9.75H3.75C3.33581 9.75 3.00003 9.41419 3 9C3 8.58579 3.33579 8.25 3.75 8.25H12.4395L8.46973 4.28027C8.17684 3.98739 8.17686 3.51262 8.46973 3.21973Z" fill="var(--fill-0, black)"/>
</g>
</svg>
