<svg preserveAspectRatio="none" width="100%" height="100%" overflow="visible" style="display: block;" viewBox="0 0 50 50" fill="none" xmlns="http://www.w3.org/2000/svg">
<g id="3400433898">
<path id="XfLF7dbg1 (Stroke)" d="M40.6253 6.24968C40.6251 5.67512 40.1579 5.20866 39.5833 5.20866H13.5413C11.2398 5.20884 9.3755 7.07315 9.37533 9.37468V35.9665C10.4809 34.9771 11.9405 34.3748 13.5413 34.3747H40.6253V6.24968ZM9.38021 40.8395C9.49179 43.0414 11.3116 44.7915 13.5413 44.7917H39.5833C40.158 44.7917 40.6253 44.3244 40.6253 43.7497V36.4587H13.5413C11.2398 36.4588 9.3755 38.3231 9.37533 40.6247L9.38021 40.8395ZM42.7083 43.7497C42.7083 45.475 41.3086 46.8747 39.5833 46.8747H13.5413C10.1971 46.8745 7.46763 44.2495 7.30013 40.9469L7.29134 40.6247V9.37468C7.29152 5.92255 10.0892 3.12485 13.5413 3.12468H39.5833C41.3085 3.12468 42.7082 4.52453 42.7083 6.24968V43.7497Z" fill="var(--fill-0, #182740)"/>
</g>
</svg>
