<svg preserveAspectRatio="none" width="100%" height="100%" overflow="visible" style="display: block;" viewBox="0 0 50 50" fill="none" xmlns="http://www.w3.org/2000/svg">
<g id="2593868513">
<path id="Union" d="M20.834 5.20801C27.1612 5.20818 32.292 10.3397 32.292 16.667C32.2919 21.0931 29.7793 24.9305 26.1045 26.8389C33.3103 29.0828 38.542 35.807 38.542 43.751C38.5416 44.3259 38.075 44.792 37.5 44.792C36.9251 44.7918 36.4594 44.3258 36.459 43.751C36.459 35.1222 29.4627 28.1262 20.834 28.126C12.2051 28.126 5.20898 35.1221 5.20898 43.751C5.20854 44.3259 4.74202 44.792 4.16699 44.792C3.59197 44.792 3.12544 44.3259 3.125 43.751C3.125 35.8072 8.35686 29.083 15.5625 26.8389C11.8877 24.9304 9.37512 21.093 9.375 16.667C9.375 10.3396 14.5066 5.20801 20.834 5.20801ZM35.666 7.17676C35.9593 6.68194 36.5989 6.51839 37.0938 6.81152C40.3849 8.7619 42.4841 12.2277 42.6904 16.0479C42.8728 19.4252 41.5524 22.686 39.1279 24.9834C43.1543 28.5051 46.8748 34.8365 46.875 41.666C46.875 42.2413 46.4083 42.708 45.833 42.708C45.2579 42.7078 44.792 42.2412 44.792 41.666C44.7918 35.0195 40.8187 28.7908 36.875 25.833C36.6129 25.6363 36.4581 25.3277 36.458 25C36.458 24.6723 36.6129 24.3637 36.875 24.167C39.3782 22.2882 40.7781 19.2839 40.6094 16.1602C40.4406 13.0346 38.7234 10.1999 36.0312 8.60449C35.5365 8.31115 35.3728 7.67162 35.666 7.17676ZM20.834 7.29199C15.6572 7.29199 11.459 11.4902 11.459 16.667C11.4592 21.8436 15.6573 26.042 20.834 26.042C26.0105 26.0418 30.2088 21.8435 30.209 16.667C30.209 11.4903 26.0106 7.29217 20.834 7.29199Z" fill="var(--fill-0, #182740)"/>
</g>
</svg>
