<svg preserveAspectRatio="none" width="100%" height="100%" overflow="visible" style="display: block;" viewBox="0 0 50 50" fill="none" xmlns="http://www.w3.org/2000/svg">
<g id="4044552799">
<path id="Union" d="M25 3.12402C25.5753 3.12402 26.042 3.5917 26.042 4.16699V11.458H37.5C40.3772 11.4582 42.708 13.7897 42.708 16.667V23.958H45.834C46.4091 23.9582 46.875 24.4248 46.875 25C46.875 25.5752 46.4091 26.0418 45.834 26.042H42.708V33.333C42.708 36.2103 40.3772 38.5418 37.5 38.542H18.3916C17.564 38.542 16.7678 38.8709 16.1816 39.457L11.5947 44.0449C10.8742 44.7655 9.79098 44.9818 8.84766 44.5918L8.8457 44.5908C7.90526 44.2002 7.29109 43.2815 7.29102 42.2627V26.042H4.16699C3.5917 26.042 3.125 25.5753 3.125 25C3.125 24.4247 3.5917 23.958 4.16699 23.958H7.29102V16.667C7.29102 13.7896 9.62262 11.458 12.5 11.458H23.959V5.20898H16.667C16.0919 5.20898 15.6253 4.74206 15.625 4.16699C15.625 3.5917 16.0917 3.12402 16.667 3.12402H25ZM12.5 13.542C10.7732 13.542 9.375 14.9402 9.375 16.667V42.2627C9.37508 42.4392 9.48141 42.5991 9.64453 42.667H9.64355C9.80849 42.7351 9.99592 42.6965 10.1211 42.5713L14.709 37.9844C15.6854 37.008 17.0109 36.458 18.3916 36.458H37.5C39.2266 36.4578 40.625 35.0597 40.625 33.333V16.667C40.625 14.9403 39.2266 13.5422 37.5 13.542H12.5ZM18.749 21.875C19.3243 21.875 19.791 22.3417 19.791 22.917V27.084C19.7906 27.6589 19.324 28.125 18.749 28.125C18.174 28.125 17.7075 27.6589 17.707 27.084V22.917C17.707 22.3417 18.1737 21.875 18.749 21.875ZM31.249 21.875C31.8243 21.875 32.291 22.3417 32.291 22.917V27.084C32.2906 27.6589 31.824 28.125 31.249 28.125C30.674 28.125 30.2075 27.6589 30.207 27.084V22.917C30.207 22.3417 30.6737 21.875 31.249 21.875Z" fill="var(--fill-0, #182740)"/>
</g>
</svg>
