<svg preserveAspectRatio="none" width="100%" height="100%" overflow="visible" style="display: block;" viewBox="0 0 50 50" fill="none" xmlns="http://www.w3.org/2000/svg">
<g id="847885441">
<path id="Union" d="M25 3.12402C33.9359 3.12402 41.619 8.48273 45.0146 16.1611C45.0453 16.2161 45.0704 16.2744 45.0908 16.335C46.2382 18.992 46.875 21.9218 46.875 25C46.8747 37.0813 37.0814 46.875 25 46.875C12.9188 46.8748 3.12526 37.0812 3.125 25C3.12518 12.9187 12.9187 3.1242 25 3.12402ZM13.541 8.86035C9.30318 11.8746 6.30584 16.5173 5.45605 21.875H10.416C13.2934 21.875 15.625 24.2066 15.625 27.084V29.167C15.6253 30.8936 17.0234 32.292 18.75 32.292C21.6271 32.2922 23.9578 34.6229 23.958 37.5V44.7637C24.3031 44.7816 24.6505 44.792 25 44.792C26.8022 44.792 28.5478 44.549 30.207 44.0977V35.417C30.207 32.5396 32.5386 30.208 35.416 30.208H44.0977C44.5492 28.5484 44.7919 26.8026 44.792 25C44.792 22.4253 44.2998 19.9652 43.4053 17.709H37.5C35.7836 17.709 34.375 19.1176 34.375 20.834C34.3747 23.7111 32.0432 26.042 29.166 26.042C26.2994 26.0418 23.9583 23.7006 23.958 20.834C23.958 19.1072 22.5598 17.709 20.833 17.709C16.8058 17.709 13.5413 14.4441 13.541 10.417V8.86035ZM5.23535 23.959C5.2175 24.3036 5.20899 24.651 5.20898 25C5.20922 34.8672 12.4295 43.0465 21.875 44.5449V37.5C21.8748 35.7735 20.4765 34.3752 18.75 34.375C15.8728 34.375 13.5413 32.0441 13.541 29.167V27.084C13.541 25.3572 12.1428 23.959 10.416 23.959H5.23535ZM35.416 32.292C33.6892 32.292 32.291 33.6902 32.291 35.417V43.4043C37.3566 41.3959 41.3955 37.3574 43.4043 32.292H35.416ZM25 5.20898C21.608 5.20904 18.4154 6.06185 15.625 7.56543V10.417C15.6253 13.2936 17.9564 15.626 20.833 15.626C23.7104 15.626 26.041 17.9566 26.041 20.834C26.0413 22.55 27.45 23.9588 29.166 23.959C30.8926 23.959 32.2908 22.5605 32.291 20.834C32.291 17.967 34.633 15.626 37.5 15.626H42.4355C39.0939 9.42367 32.5394 5.20898 25 5.20898Z" fill="var(--fill-0, #182740)"/>
</g>
</svg>
