<svg preserveAspectRatio="none" width="100%" height="100%" overflow="visible" style="display: block;" viewBox="0 0 30 30" fill="none" xmlns="http://www.w3.org/2000/svg">
<g id="Mask">
<g id="image fill" clip-path="url(#clip0_188_3576)">
<g id="image">
<path id="Vector" d="M26.25 5.4045V24.5955C26.25 25.0343 26.076 25.455 25.7655 25.7655C25.455 26.076 25.0343 26.25 24.5955 26.25H5.4045C4.96575 26.25 4.545 26.076 4.2345 25.7655C3.924 25.455 3.75 25.0343 3.75 24.5955V5.4045C3.75 4.96575 3.924 4.545 4.2345 4.2345C4.545 3.924 4.96575 3.75 5.4045 3.75H24.5955C25.0343 3.75 25.455 3.924 25.7655 4.2345C26.076 4.545 26.25 4.96575 26.25 5.4045ZM10.3672 12.3532H7.059V22.941H10.3672V12.3532ZM10.6657 8.7135C10.6672 8.463 10.62 8.21475 10.5255 7.983C10.431 7.75125 10.2923 7.53975 10.1168 7.362C9.94125 7.1835 9.732 7.04175 9.501 6.94425C9.27075 6.84675 9.02325 6.79575 8.77275 6.79425H8.7135C8.20425 6.79425 7.716 6.996 7.356 7.356C6.996 7.716 6.79425 8.20425 6.79425 8.7135C6.79425 9.222 6.996 9.71025 7.356 10.0703C7.716 10.4303 8.20425 10.6328 8.7135 10.6328C8.96325 10.6388 9.213 10.5952 9.44625 10.5052C9.6795 10.4152 9.89325 10.2795 10.0747 10.107C10.2562 9.9345 10.4017 9.7275 10.503 9.49875C10.6042 9.27 10.6597 9.02325 10.6657 8.77275V8.7135ZM22.941 16.509C22.941 13.326 20.916 12.0885 18.9045 12.0885C18.246 12.0555 17.5898 12.1957 17.0025 12.495C16.4145 12.795 15.9158 13.2428 15.5558 13.7955H15.4635V12.3532H12.3532V22.941H15.6615V17.3093C15.6142 16.7325 15.7957 16.1603 16.167 15.717C16.539 15.273 17.0707 14.994 17.6467 14.9407H17.7728C18.825 14.9407 19.6058 15.6022 19.6058 17.2695V22.941H22.9147L22.941 16.509Z" fill="var(--fill-0, black)"/>
</g>
</g>
</g>
<defs>
<clipPath id="clip0_188_3576">
<rect width="30" height="30" fill="white"/>
</clipPath>
</defs>
</svg>
