<svg preserveAspectRatio="none" width="100%" height="100%" overflow="visible" style="display: block;" viewBox="0 0 30 30" fill="none" xmlns="http://www.w3.org/2000/svg">
<g id="Mask">
<g id="image fill" clip-path="url(#clip0_188_3569)">
<g id="image">
<path id="Vector" d="M10.911 10.911C11.9955 9.8265 13.4663 9.2175 15 9.2175C16.5338 9.2175 18.0045 9.8265 19.089 10.911C20.1735 11.9955 20.7825 13.4663 20.7825 15C20.7825 16.5338 20.1735 18.0045 19.089 19.089C18.0045 20.1735 16.5338 20.7825 15 20.7825C13.4663 20.7825 11.9955 20.1735 10.911 19.089C9.8265 18.0045 9.2175 16.5338 9.2175 15C9.2175 13.4663 9.8265 11.9955 10.911 10.911ZM13.5638 18.468C14.019 18.657 14.5073 18.7538 15 18.7538C15.9953 18.7538 16.95 18.3585 17.6543 17.6543C18.3585 16.95 18.7538 15.9953 18.7538 15C18.7538 14.0048 18.3585 13.05 17.6543 12.3457C16.95 11.6415 15.9953 11.2462 15 11.2462C14.5073 11.2462 14.019 11.3437 13.5638 11.532C13.1078 11.721 12.6945 11.997 12.3457 12.3457C11.997 12.6945 11.721 13.1078 11.532 13.5638C11.343 14.019 11.2462 14.5073 11.2462 15C11.2462 15.4928 11.343 15.981 11.532 16.4363C11.721 16.8923 11.997 17.3055 12.3457 17.6543C12.6945 18.003 13.1078 18.2798 13.5638 18.468Z" fill="var(--fill-0, black)"/>
<path id="Vector_2" d="M22.0643 10.0785C22.3208 9.822 22.4648 9.47475 22.4648 9.11175C22.4648 8.7495 22.3208 8.40225 22.0643 8.14575C21.8078 7.88925 21.4605 7.74525 21.0983 7.74525C20.7353 7.74525 20.388 7.88925 20.1315 8.14575C19.875 8.40225 19.731 8.7495 19.731 9.11175C19.731 9.47475 19.875 9.822 20.1315 10.0785C20.388 10.335 20.7353 10.479 21.0983 10.479C21.4605 10.479 21.8078 10.335 22.0643 10.0785Z" fill="var(--fill-0, black)"/>
<path id="Vector_3" d="M10.362 3.8175C11.562 3.76275 11.9445 3.75 15 3.75C18.0562 3.75 18.438 3.7635 19.6373 3.8175C20.835 3.87225 21.654 4.0635 22.3695 4.34025C23.1203 4.623 23.7998 5.0655 24.3615 5.63775C24.9338 6.1995 25.3762 6.87975 25.659 7.6305C25.9372 8.346 26.1277 9.16425 26.1825 10.362C26.2372 11.562 26.25 11.9445 26.25 15C26.25 18.0555 26.2372 18.438 26.1825 19.638C26.1277 20.8358 25.9372 21.654 25.6597 22.3695C25.377 23.1195 24.9345 23.7998 24.3622 24.3615C23.7997 24.9345 23.1195 25.377 22.3695 25.659C21.654 25.9372 20.8358 26.1277 19.638 26.1825C18.438 26.2372 18.0555 26.25 15 26.25C11.9445 26.25 11.562 26.2372 10.362 26.1825C9.16425 26.1277 8.346 25.9372 7.6305 25.6597C6.87975 25.377 6.20025 24.9345 5.6385 24.3622C5.0655 23.7997 4.623 23.1195 4.341 22.3695C4.06275 21.654 3.87225 20.8358 3.8175 19.638C3.76275 18.438 3.75 18.0562 3.75 15C3.75 11.9438 3.7635 11.562 3.8175 10.3628C3.87225 9.165 4.0635 8.346 4.34025 7.6305C4.623 6.8805 5.0655 6.20025 5.63775 5.6385C6.20025 5.0655 6.8805 4.623 7.6305 4.341C8.346 4.06275 9.16425 3.87225 10.362 3.8175ZM19.5465 5.8425C18.36 5.7885 18.0038 5.77725 15 5.77725C11.9962 5.77725 11.64 5.7885 10.4535 5.8425C9.357 5.89275 8.7615 6.07575 8.36475 6.23025C7.87575 6.41025 7.434 6.6975 7.071 7.071C6.678 7.46475 6.4335 7.83975 6.23025 8.36475C6.075 8.7615 5.89275 9.357 5.8425 10.4535C5.7885 11.64 5.77725 11.9962 5.77725 15C5.77725 18.0038 5.7885 18.36 5.8425 19.5465C5.89275 20.643 6.07575 21.2385 6.23025 21.6353C6.41025 22.1235 6.6975 22.566 7.071 22.929C7.434 23.3025 7.87575 23.5898 8.36475 23.7698C8.7615 23.925 9.357 24.1072 10.4535 24.1575C11.64 24.2115 11.9955 24.2228 15 24.2228C18.0045 24.2228 18.36 24.2115 19.5465 24.1575C20.643 24.1072 21.2385 23.9243 21.6353 23.7698C22.1243 23.5898 22.566 23.3025 22.929 22.929C23.3025 22.566 23.5898 22.1243 23.7698 21.6353C23.925 21.2385 24.1072 20.643 24.1575 19.5465C24.2115 18.36 24.2228 18.0038 24.2228 15C24.2228 11.9962 24.2115 11.64 24.1575 10.4535C24.1072 9.357 23.9243 8.7615 23.7698 8.36475C23.5665 7.83975 23.3228 7.46475 22.929 7.071C22.5353 6.678 22.1603 6.4335 21.6353 6.23025C21.2385 6.075 20.643 5.89275 19.5465 5.8425Z" fill="var(--fill-0, black)"/>
</g>
</g>
</g>
<defs>
<clipPath id="clip0_188_3569">
<rect width="30" height="30" fill="white"/>
</clipPath>
</defs>
</svg>
