<svg preserveAspectRatio="none" width="100%" height="100%" overflow="visible" style="display: block;" viewBox="0 0 174.999 34" fill="none" xmlns="http://www.w3.org/2000/svg">
<g id="Group">
<path id="Vector" d="M59.906 19.096C59.906 22.85 57.233 24.953 51.791 24.953H42.118V2.676H51.157C55.803 2.676 58.699 4.619 58.699 8.341C58.699 11.111 57.108 12.796 54.624 13.497C58.091 14.038 59.906 15.946 59.906 19.1V19.096ZM43.199 3.628V13.176H51.188C55.263 13.176 57.649 11.554 57.649 8.404C57.649 5.254 55.263 3.632 51.188 3.632H43.199V3.628ZM58.824 19.061C58.824 15.625 56.407 14.097 51.854 14.097H43.199V23.994H51.854C56.407 23.994 58.824 22.466 58.824 19.061ZM60.736 13.811C60.736 7.35 65.669 2.547 72.224 2.547C75.248 2.547 78.014 3.534 79.958 5.505L79.288 6.206C77.313 4.298 74.896 3.534 72.255 3.534C66.304 3.534 61.817 7.989 61.817 13.811C61.817 19.633 66.304 24.091 72.255 24.091C74.896 24.091 77.317 23.296 79.288 21.388L79.958 22.089C78.018 24.095 75.248 25.079 72.224 25.079C65.669 25.079 60.736 20.275 60.736 13.815V13.811Z" fill="var(--fill-0, #828889)"/>
<path id="Vector_2" d="M80.835 14.324V13.944H83.284C84.111 12.628 84.961 11.303 85.831 9.967C86.7 8.631 87.613 7.425 88.569 6.355C89.525 5.285 90.52 4.412 91.563 3.746C92.605 3.08 93.694 2.743 94.842 2.743C95.52 2.743 96.072 2.888 96.495 3.174C96.918 3.46 97.13 3.902 97.13 4.494C97.13 5.003 96.969 5.422 96.652 5.752C96.335 6.081 95.931 6.265 95.441 6.308C95.524 6.01 95.594 5.732 95.649 5.466C95.704 5.199 95.727 4.886 95.727 4.525C95.727 4.102 95.625 3.761 95.426 3.507C95.222 3.252 94.881 3.127 94.391 3.127C93.608 3.127 92.805 3.483 91.99 4.192C91.171 4.905 90.368 5.799 89.572 6.88C88.777 7.961 88.001 9.137 87.249 10.398C86.497 11.66 85.78 12.843 85.102 13.948H92.295V14.328H84.91C82.873 17.807 81.047 20.789 79.437 23.273C77.826 25.757 76.275 27.794 74.79 29.385C73.305 30.975 71.82 32.143 70.335 32.887C68.85 33.632 67.205 34 65.402 34C64.768 34 64.156 33.922 63.573 33.761C62.989 33.6 62.476 33.361 62.029 33.044C61.586 32.73 61.216 32.322 60.948 31.849C60.673 31.371 60.532 30.815 60.532 30.176C60.532 29.349 60.791 28.644 61.312 28.06C61.833 27.477 62.707 27.187 63.937 27.187H64.223V27.441C63.588 27.484 63.044 27.727 62.601 28.174C62.158 28.621 61.931 29.236 61.931 30.019C61.931 31.124 62.237 31.998 62.856 32.644C63.475 33.291 64.372 33.616 65.559 33.616C66.746 33.616 67.796 33.354 68.838 32.836C69.881 32.315 70.88 31.598 71.847 30.689C72.815 29.78 73.755 28.707 74.68 27.477C75.605 26.246 76.525 24.914 77.45 23.484C78.375 22.05 79.299 20.558 80.236 18.998C81.168 17.439 82.124 15.883 83.1 14.336H80.839L80.835 14.324Z" fill="var(--fill-0, #33699A)"/>
<path id="Vector_3" d="M86.43 18.947C88.221 14.755 92.342 12.714 95.116 12.714C97.89 12.714 100.272 14.751 98.478 18.947C96.687 23.139 92.566 25.181 89.788 25.181C87.01 25.181 84.632 23.143 86.426 18.947H86.43ZM96.209 18.947C97.659 15.55 97.636 12.98 95.007 12.98C92.378 12.98 90.156 15.55 88.707 18.947C87.257 22.344 87.28 24.914 89.909 24.914C92.538 24.914 94.76 22.344 96.209 18.947ZM98.027 24.648C99.622 24.648 100.441 24.53 101.072 23.053L104.468 15.108C105.099 13.631 104.382 13.513 102.788 13.513L102.862 13.337L107.517 12.745L106.051 16.169C107.619 14.367 109.875 12.686 111.411 12.686C112.473 12.686 112.661 13.423 112.332 14.195C111.967 15.053 111.023 15.672 110.283 15.672C109.397 15.672 109.052 14.814 109.628 13.96C108.179 14.312 106.749 15.586 105.887 16.557L103.109 23.053C102.478 24.53 103.195 24.648 104.79 24.648L104.7 24.855H97.937L98.027 24.648ZM115.121 16.228C115.137 13.983 114.714 13.247 112.853 13.247L112.943 13.039H120.238L120.148 13.247C117.993 13.247 117.265 14.191 117.237 15.844L117.112 22.638L122.526 16.052V15.903C122.581 13.983 122.366 13.243 120.861 13.243L120.951 13.035H127.953L127.863 13.243C125.383 13.243 124.709 14.128 124.626 15.84L124.289 22.575L127.134 19.03C129.328 16.31 130.088 15.159 130.339 14.571C130.68 13.772 130.433 13.243 128.838 13.243L128.928 13.035H134.66L134.57 13.243C133.477 13.243 132.145 13.599 130.946 14.81C130.272 15.488 129.328 16.73 127.349 19.151L122.436 25.118H122.201L122.507 16.522L115.321 25.118H115.086L115.133 16.228H115.121ZM131.475 21.929C132.435 19.684 134.997 18.591 137.509 18.591C138.751 18.591 139.875 18.857 140.655 19.182L141.877 16.318C142.763 14.25 142.649 12.921 140.521 12.921C138.896 12.921 137.701 13.721 136.874 14.547C137.43 14.696 137.634 15.257 137.356 15.907C137.027 16.675 136.173 17.294 135.405 17.294C134.547 17.294 134.315 16.526 134.668 15.699C135.326 14.163 137.861 12.718 140.639 12.718C143.06 12.718 144.972 13.838 143.738 16.734L140.886 23.41C140.443 24.444 140.87 24.62 141.254 24.62C142.379 24.62 143.805 23.143 144.185 22.669L144.342 22.787C143.319 23.939 141.908 25.091 140.373 25.091C139.221 25.091 138.566 24.413 138.974 23.112C137.763 24.146 136.082 25.181 133.986 25.181C131.624 25.181 130.644 23.88 131.475 21.933V21.929ZM139.138 22.728L140.553 19.421C139.855 19.186 139.025 18.92 138.022 18.92C136.251 18.92 134.582 19.719 133.645 21.901C132.827 23.821 133.469 24.738 134.915 24.738C136.451 24.738 137.987 23.704 139.138 22.728ZM143.844 24.648C145.439 24.648 146.257 24.53 146.888 23.053L150.285 15.108C150.916 13.631 150.199 13.513 148.604 13.513L148.679 13.337L153.333 12.745L151.868 16.169C153.435 14.367 155.688 12.686 157.224 12.686C158.285 12.686 158.474 13.423 158.144 14.195C157.78 15.053 156.836 15.672 156.095 15.672C155.21 15.672 154.865 14.814 155.441 13.96C153.991 14.312 152.561 15.586 151.703 16.557L148.926 23.053C148.295 24.53 149.012 24.648 150.606 24.648L150.516 24.855H143.754L143.844 24.648ZM157.655 19.006C159.269 15.225 163.03 12.714 166.309 12.714C167.755 12.714 168.782 13.215 169.087 14.159L171.951 7.456C172.582 5.979 171.865 5.861 170.271 5.861L170.345 5.685L174.999 5.093L167.328 23.053C166.697 24.53 167.414 24.648 169.009 24.648L168.919 24.855H164.519L165.287 23.053C163.908 24.205 162.164 25.181 160.303 25.181C157.173 25.181 156.217 22.375 157.655 19.01V19.006ZM165.451 22.669L168.366 15.848C168.985 14.402 168.394 12.953 166.533 12.953C164.111 12.953 161.4 15.492 159.974 18.83C158.814 21.549 158.591 24.558 161.424 24.558C162.932 24.558 164.288 23.731 165.451 22.669Z" fill="var(--fill-0, #33699A)"/>
<g id="Group_2" opacity="0.68">
<path id="Vector_4" d="M5.375 0.012C4.686 -0.027 4.043 0.032 3.456 0.169C2.876 0.274 2.327 0.509 1.853 0.823C1.113 1.281 0.603 1.889 0.392 2.531C0.141 3.06 0 3.644 0 4.259C0 6.567 1.912 8.432 4.271 8.432C5.92 8.432 7.362 7.515 8.071 6.163C8.561 5.305 9.023 4.298 10.861 3.663C11.911 3.291 13.952 3.272 13.952 3.272C10.653 1.387 7.393 0.086 5.372 0V0.008L5.375 0.012Z" fill="url(#paint0_radial_188_3581)"/>
</g>
<g id="Group_3">
<path id="Vector_5" d="M25.621 9.893C23.721 8.526 21.77 7.198 19.643 6.198C18.644 5.728 17.382 5.164 16.171 4.87C15 4.588 13.632 4.302 12.473 4.706C9.425 5.771 8.794 8.643 9.432 10.355C9.942 11.735 10.992 13.306 13.683 13.462C14.541 13.509 15.372 13.149 16.124 12.906C18.553 12.103 22.385 11.872 25.786 14.05C27.255 14.998 28.246 16.385 28.215 18.164C28.203 18.983 28.066 19.794 27.643 20.519C27.153 21.357 26.405 22.121 25.672 22.756C26.793 22.051 27.921 21.29 28.952 20.46C30.053 19.57 31.252 18.379 31.381 16.902C31.51 15.476 30.343 14.117 29.422 13.141C28.282 11.93 26.973 10.865 25.621 9.897V9.893Z" fill="url(#paint1_radial_188_3581)"/>
</g>
<g id="Group_4" opacity="0.68">
<path id="Vector_6" d="M23.573 13.924C25.332 16.24 24.643 19.347 22.112 20.793C19.342 22.387 15.303 20.706 12.693 19.649C10.444 18.595 8.133 19.602 7.153 21.337C6.303 22.842 6.464 24.942 8.344 26.289C11.514 28.566 17.947 25.898 20.807 24.542C22.758 23.625 25.599 21.658 26.257 20.017C27.276 17.458 26.288 14.857 23.577 13.909" fill="url(#paint2_radial_188_3581)"/>
</g>
</g>
<defs>
<radialGradient id="paint0_radial_188_3581" cx="0" cy="0" r="1" gradientUnits="userSpaceOnUse" gradientTransform="translate(111.001 86.9945) scale(10.2142 6.17305)">
<stop stop-color="#E7ECEF"/>
<stop offset="1" stop-color="#6D6E71"/>
</radialGradient>
<radialGradient id="paint1_radial_188_3581" cx="0" cy="0" r="1" gradientUnits="userSpaceOnUse" gradientTransform="translate(143.128 100.395) scale(14.3555 11.8102)">
<stop stop-color="#262262"/>
<stop offset="1" stop-color="#2989CA"/>
</radialGradient>
<radialGradient id="paint2_radial_188_3581" cx="0" cy="0" r="1" gradientUnits="userSpaceOnUse" gradientTransform="translate(138.389 115.072) scale(11.554 7.66845)">
<stop stop-color="#808285"/>
<stop offset="1" stop-color="#E7ECEF"/>
</radialGradient>
</defs>
</svg>
