<svg preserveAspectRatio="none" width="100%" height="100%" overflow="visible" style="display: block;" viewBox="0 0 36 36" fill="none" xmlns="http://www.w3.org/2000/svg">
<g id="29556954">
<path id="Union" d="M6.85723 6.86934C7.14999 6.5765 7.62578 6.57666 7.91876 6.86934C8.21115 7.16206 8.21111 7.63702 7.91876 7.92989C2.36149 13.493 2.36143 22.5074 7.91876 28.0705C8.21113 28.3634 8.21125 28.8383 7.91876 29.1311C7.62578 29.4237 7.14999 29.4239 6.85723 29.1311C0.714774 22.9823 0.714831 13.0182 6.85723 6.86934ZM28.0828 6.86934C28.3758 6.57669 28.8506 6.57657 29.1434 6.86934C35.2858 13.0182 35.2859 22.9822 29.1434 29.1311C28.8506 29.4236 28.3757 29.4236 28.0828 29.1311C27.79 28.8383 27.7902 28.3635 28.0828 28.0705C33.64 22.5074 33.6399 13.493 28.0828 7.92989C27.7902 7.63696 27.7901 7.16211 28.0828 6.86934ZM11.0984 11.1115C11.3912 10.8185 11.8659 10.8188 12.159 11.1115C12.452 11.4042 12.4526 11.879 12.16 12.1721C8.94438 15.3922 8.94426 20.6083 12.16 23.8283C12.4527 24.1214 12.4521 24.5971 12.159 24.8898C11.8659 25.1819 11.3909 25.1818 11.0984 24.8889C7.29762 21.0832 7.29781 14.9174 11.0984 11.1115ZM23.8397 11.1105C24.1328 10.818 24.6086 10.8184 24.9012 11.1115C28.7 14.9173 28.7002 21.0832 24.9012 24.8889C24.6086 25.1819 24.1328 25.1822 23.8397 24.8898C23.5467 24.5973 23.5465 24.1225 23.8387 23.8293C27.0532 20.6092 27.0531 15.3923 23.8387 12.1721C23.5461 11.8789 23.5465 11.4032 23.8397 11.1105ZM17.9998 14.2502C20.0715 14.2502 21.7498 15.9285 21.7498 18.0002C21.7497 20.0718 20.0715 21.7502 17.9998 21.7502C15.9283 21.7501 14.2499 20.0718 14.2498 18.0002C14.2498 15.9285 15.9282 14.2503 17.9998 14.2502ZM17.9998 15.7502C16.7566 15.7503 15.7498 16.757 15.7498 18.0002C15.7499 19.2433 16.7567 20.2501 17.9998 20.2502C19.243 20.2502 20.2497 19.2434 20.2498 18.0002C20.2498 16.7569 19.2431 15.7502 17.9998 15.7502Z" fill="var(--fill-0, #182740)"/>
</g>
</svg>
