<svg preserveAspectRatio="none" width="100%" height="100%" overflow="visible" style="display: block;" viewBox="0 0 36 36" fill="none" xmlns="http://www.w3.org/2000/svg">
<g id="3062869413">
<path id="Union" d="M27 21.75C29.8997 21.75 32.25 24.1003 32.25 27C32.25 28.1793 31.8605 29.2671 31.2041 30.1436L33.5303 32.4697C33.823 32.7626 33.8231 33.2374 33.5303 33.5303C33.2374 33.823 32.7626 33.8229 32.4697 33.5303L30.1436 31.2041C29.2671 31.8605 28.1793 32.25 27 32.25C24.1003 32.25 21.75 29.8997 21.75 27C21.75 24.1003 24.1003 21.75 27 21.75ZM15 3.75C19.5557 3.75 23.25 7.44429 23.25 12C23.25 15.1896 21.4377 17.9543 18.7881 19.3271C18.8184 19.3366 18.8487 19.3458 18.8789 19.3555C19.2734 19.4814 19.491 19.9034 19.3652 20.2979C19.2392 20.6924 18.8174 20.9102 18.4229 20.7842C15.0014 19.6915 11.2647 20.2979 8.36523 22.417C5.46544 24.5349 3.75004 27.9102 3.75 31.5C3.74999 31.9142 3.41421 32.25 3 32.25C2.58579 32.25 2.25001 31.9142 2.25 31.5C2.25004 27.431 4.19446 23.6061 7.48047 21.2061L7.79102 20.9854C8.85332 20.2566 10.0073 19.7018 11.2109 19.3271C8.56176 17.9542 6.75 15.1893 6.75 12C6.75 7.44429 10.4443 3.75 15 3.75ZM27 23.25C24.9287 23.25 23.25 24.9287 23.25 27C23.25 29.0713 24.9287 30.75 27 30.75C27.9553 30.75 28.8262 30.3918 29.4883 29.8037C29.5226 29.7381 29.565 29.6753 29.6201 29.6201C29.6756 29.5647 29.7387 29.5218 29.8047 29.4873C30.3922 28.8253 30.75 27.9548 30.75 27C30.75 24.9287 29.0713 23.25 27 23.25ZM15 5.25C11.2727 5.25 8.25 8.27271 8.25 12C8.25 15.7273 11.2727 18.75 15 18.75C18.7273 18.75 21.75 15.7273 21.75 12C21.75 8.27271 18.7273 5.25 15 5.25Z" fill="var(--fill-0, #182740)"/>
</g>
</svg>
