<svg preserveAspectRatio="none" width="100%" height="100%" overflow="visible" style="display: block;" viewBox="0 0 36 36" fill="none" xmlns="http://www.w3.org/2000/svg">
<g id="89488612">
<path id="Union" d="M11.7002 3.55762C12.0798 3.3921 12.5219 3.56574 12.6875 3.94532C12.8531 4.32492 12.6794 4.76694 12.2998 4.93262C6.61381 7.41347 3.20773 13.2738 3.81933 19.4014L3.89159 19.9951L3.9873 20.585C5.1051 26.6406 10.0078 31.3219 16.1592 32.124L16.7539 32.1895C22.8882 32.7293 28.7092 29.2566 31.125 23.543C31.2864 23.1617 31.726 22.9833 32.1074 23.1445C32.4888 23.3059 32.667 23.7455 32.5059 24.127C29.7496 30.6458 22.9838 34.5256 15.9658 33.6123C8.9479 32.6973 3.40031 27.213 2.40624 20.2061L2.32714 19.5498C1.65114 12.7769 5.41548 6.29956 11.7002 3.55762ZM19.5693 2.33008C27.0252 3.07662 32.9226 8.97189 33.6709 16.4277C33.8027 17.7429 32.7194 18.7497 31.5 18.75L19.498 18.751C18.2558 18.751 17.248 17.7432 17.248 16.501V4.50098C17.2484 3.28219 18.2525 2.19859 19.5693 2.33008ZM19.4199 3.82227C19.0874 3.78934 18.7484 4.0647 18.748 4.50098V16.501C18.748 16.9148 19.0843 17.251 19.498 17.251L31.499 17.25C31.9351 17.2497 32.2119 16.9086 32.1787 16.5772C31.5015 9.83159 26.1656 4.4977 19.4199 3.82227Z" fill="var(--fill-0, #182740)"/>
</g>
</svg>
