<svg preserveAspectRatio="none" width="100%" height="100%" overflow="visible" style="display: block;" viewBox="0 0 36 36" fill="none" xmlns="http://www.w3.org/2000/svg">
<g id="4191764975">
<path id="Union" d="M13.5 8.25C14.7422 8.25 15.75 9.25779 15.75 10.5V20.25H25.5C26.7422 20.25 27.75 21.2578 27.75 22.5V30C27.75 32.0717 26.0717 33.75 24 33.75H6C3.92829 33.75 2.25 32.0717 2.25 30V12C2.25 9.92829 3.92829 8.25 6 8.25H13.5ZM3.75 30C3.75 31.2433 4.75671 32.25 6 32.25H14.25V21.75H3.75V30ZM15.75 32.25H24C25.2433 32.25 26.25 31.2433 26.25 30V22.5C26.25 22.0862 25.9138 21.75 25.5 21.75H15.75V32.25ZM6 9.75C4.75671 9.75 3.75 10.7567 3.75 12V20.25H14.25V10.5C14.25 10.0862 13.9138 9.75 13.5 9.75H6ZM31.5 2.25C32.7422 2.25 33.75 3.25779 33.75 4.5V13.5C33.75 14.7422 32.7422 15.75 31.5 15.75H22.5C21.2578 15.75 20.25 14.7422 20.25 13.5V4.5C20.25 3.25779 21.2578 2.25 22.5 2.25H31.5ZM22.5 3.75C22.0862 3.75 21.75 4.08621 21.75 4.5V13.5C21.75 13.9138 22.0862 14.25 22.5 14.25H31.5C31.9138 14.25 32.25 13.9138 32.25 13.5V4.5C32.25 4.08621 31.9138 3.75 31.5 3.75H22.5Z" fill="var(--fill-0, #182740)"/>
</g>
</svg>
