<svg preserveAspectRatio="none" width="100%" height="100%" overflow="visible" style="display: block;" viewBox="0 0 174.999 34" fill="none" xmlns="http://www.w3.org/2000/svg">
<g id="Group">
<path id="Vector" d="M59.906 19.096C59.906 22.85 57.233 24.953 51.791 24.953H42.118V2.676H51.157C55.803 2.676 58.699 4.619 58.699 8.341C58.699 11.111 57.108 12.796 54.624 13.497C58.091 14.038 59.906 15.946 59.906 19.1V19.096ZM43.199 3.628V13.176H51.188C55.263 13.176 57.649 11.554 57.649 8.404C57.649 5.254 55.263 3.632 51.188 3.632H43.199V3.628ZM58.824 19.061C58.824 15.625 56.407 14.097 51.854 14.097H43.199V23.994H51.854C56.407 23.994 58.824 22.466 58.824 19.061ZM60.736 13.811C60.736 7.35 65.669 2.547 72.224 2.547C75.248 2.547 78.014 3.534 79.958 5.505L79.288 6.206C77.313 4.298 74.896 3.534 72.255 3.534C66.304 3.534 61.817 7.989 61.817 13.811C61.817 19.633 66.304 24.091 72.255 24.091C74.896 24.091 77.317 23.296 79.288 21.388L79.958 22.089C78.018 24.095 75.248 25.079 72.224 25.079C65.669 25.079 60.736 20.275 60.736 13.815V13.811Z" fill="var(--fill-0, #828889)"/>
<path id="Union" d="M94.8418 2.74316C95.5197 2.74316 96.0721 2.88791 96.4951 3.17383C96.9181 3.45983 97.1299 3.90214 97.1299 4.49414C97.1299 5.00304 96.9693 5.42199 96.6523 5.75195C96.3354 6.08091 95.9313 6.26458 95.4414 6.30762C95.5244 6.00978 95.5944 5.73169 95.6494 5.46582C95.7044 5.19896 95.7275 4.88613 95.7275 4.52539C95.7275 4.10239 95.6248 3.76084 95.4258 3.50684C95.2218 3.25213 94.8812 3.12702 94.3916 3.12695C93.6086 3.12695 92.8052 3.48338 91.9902 4.19238C91.1713 4.90533 90.3682 5.79901 89.5723 6.87988C88.7773 7.96088 88.001 9.13744 87.249 10.3984C86.4971 11.6603 85.7805 12.8434 85.1025 13.9482H90.917C92.3667 13.1228 93.8753 12.714 95.1152 12.7139C97.8892 12.7139 100.272 14.7513 98.4775 18.9473C96.6866 23.1389 92.566 25.1805 89.7881 25.1807C87.0101 25.1807 84.6319 23.1432 86.4258 18.9473H86.4297C87.3057 16.8968 88.7401 15.3622 90.3008 14.3281H84.9102C82.8732 17.8071 81.0475 20.7895 79.4375 23.2734C77.8266 25.7573 76.275 27.7938 74.79 29.3848C73.305 30.9748 71.82 32.1427 70.335 32.8867C68.85 33.6317 67.2053 34 65.4023 34C64.7683 34 64.1562 33.9217 63.5732 33.7607C62.9893 33.5997 62.4763 33.3609 62.0293 33.0439C61.5863 32.7299 61.2162 32.3216 60.9482 31.8486C60.6734 31.3707 60.5322 30.8146 60.5322 30.1758C60.5323 29.3489 60.7916 28.6435 61.3125 28.0596C61.8335 27.4768 62.7078 27.1875 63.9375 27.1875H64.2236V27.4414C63.5888 27.4844 63.0445 27.727 62.6016 28.1738C62.1587 28.6207 61.9317 29.2358 61.9316 30.0186C61.9316 31.1236 62.2374 31.9985 62.8564 32.6445C63.4754 33.2913 64.3728 33.6162 65.5596 33.6162C66.7463 33.6162 67.7961 33.3538 68.8379 32.8359C69.8809 32.3149 70.8807 31.5985 71.8477 30.6895C72.8156 29.7805 73.7557 28.7066 74.6807 27.4766C75.6055 26.2458 76.5254 24.9141 77.4502 23.4844C78.3752 22.0504 79.2993 20.558 80.2363 18.998C81.1683 17.4391 82.1246 15.8829 83.1006 14.3359H80.8389L80.835 14.3242V13.9443H83.2842C84.1112 12.6283 84.9611 11.3028 85.8311 9.9668C86.7 8.63091 87.6134 7.4254 88.5693 6.35547C89.5253 5.28547 90.5205 4.41209 91.5635 3.74609C92.6053 3.08024 93.694 2.74325 94.8418 2.74316ZM140.639 12.7178C143.06 12.7178 144.971 13.8384 143.737 16.7344L140.886 23.4102C140.443 24.4441 140.87 24.6201 141.254 24.6201C142.379 24.6199 143.805 23.1429 144.185 22.6689L144.342 22.7871C143.319 23.939 141.908 25.0906 140.373 25.0908C139.221 25.0908 138.566 24.4131 138.974 23.1123C137.763 24.1463 136.081 25.1807 133.985 25.1807C131.624 25.1806 130.644 23.8795 131.475 21.9326V21.9287C132.435 19.6839 134.997 18.5908 137.509 18.5908C138.751 18.5908 139.874 18.8567 140.654 19.1816L141.877 16.3184C142.763 14.2504 142.649 12.9209 140.521 12.9209C138.896 12.9209 137.701 13.721 136.874 14.5469C137.43 14.696 137.633 15.2573 137.355 15.9072C137.026 16.6751 136.172 17.2939 135.404 17.2939C134.547 17.2937 134.315 16.5261 134.668 15.6992C135.326 14.1632 137.861 12.7178 140.639 12.7178ZM167.328 23.0527C166.697 24.5297 167.414 24.6484 169.009 24.6484L168.919 24.8555H164.519L165.287 23.0527C163.908 24.2047 162.164 25.1806 160.303 25.1807C157.173 25.1807 156.216 22.3748 157.654 19.0098V19.0059C159.268 15.2249 163.03 12.7139 166.309 12.7139C167.755 12.7139 168.782 13.2152 169.087 14.1592L171.95 7.45605C172.581 5.97905 171.865 5.86133 170.271 5.86133L170.345 5.68457L174.999 5.09277L167.328 23.0527ZM127.862 13.2432C125.383 13.2432 124.709 14.128 124.626 15.8398L124.289 22.5752L127.134 19.0303C129.328 16.3105 130.088 15.1593 130.339 14.5713C130.68 13.7723 130.433 13.2432 128.838 13.2432L128.928 13.0352H134.659L134.569 13.2432C133.476 13.2432 132.144 13.5987 130.945 14.8096C130.271 15.4876 129.328 16.7304 127.349 19.1514L122.436 25.1182H122.2L122.507 16.5225L115.32 25.1182H115.086L115.133 16.2275H115.121C115.137 13.9829 114.713 13.2471 112.853 13.2471L112.942 13.0391H120.237L120.147 13.2471C117.993 13.2471 117.264 14.191 117.236 15.8438L117.111 22.6377L122.525 16.0518V15.9033C122.58 13.9833 122.365 13.2432 120.86 13.2432L120.95 13.0352H127.953L127.862 13.2432ZM95.0068 12.9805C94.034 12.9805 93.1173 13.3327 92.2744 13.9482H92.2949V14.3281H91.7998C90.5697 15.4057 89.5175 17.0472 88.707 18.9473C87.2571 22.344 87.2797 24.9138 89.9082 24.9141C92.5372 24.9141 94.76 22.3442 96.209 18.9473C97.659 15.5503 97.6357 12.9806 95.0068 12.9805ZM111.411 12.6855C112.473 12.6858 112.661 13.4234 112.332 14.1953C111.967 15.0533 111.022 15.6719 110.282 15.6719C109.397 15.6716 109.052 14.8138 109.628 13.96C108.179 14.3119 106.749 15.5857 105.887 16.5566L103.108 23.0527C102.477 24.5297 103.195 24.6484 104.79 24.6484L104.699 24.8555H97.9365L98.0264 24.6484C99.6214 24.6484 100.44 24.5297 101.071 23.0527L104.468 15.1084C105.099 13.6315 104.382 13.5127 102.788 13.5127L102.861 13.3369L107.517 12.7451L106.051 16.1689C107.619 14.367 109.875 12.6855 111.411 12.6855ZM157.224 12.6855C158.285 12.6855 158.474 13.4233 158.144 14.1953C157.779 15.0531 156.836 15.6718 156.095 15.6719C155.21 15.6719 154.864 14.8139 155.44 13.96C153.991 14.312 152.561 15.5857 151.703 16.5566L148.926 23.0527C148.295 24.5297 149.012 24.6484 150.605 24.6484L150.516 24.8555H143.754L143.844 24.6484C145.439 24.6484 146.257 24.5297 146.888 23.0527L150.284 15.1084C150.915 13.6314 150.199 13.5127 148.604 13.5127L148.679 13.3369L153.333 12.7451L151.867 16.1689C153.434 14.367 155.688 12.6856 157.224 12.6855ZM138.021 18.9199C136.251 18.92 134.582 19.7194 133.645 21.9014C132.827 23.8211 133.469 24.7383 134.915 24.7383C136.451 24.7381 137.987 23.7035 139.138 22.7275L140.553 19.4209C139.855 19.1859 139.024 18.9199 138.021 18.9199ZM166.532 12.9531C164.11 12.9534 161.4 15.4923 159.974 18.8301C158.814 21.5491 158.591 24.5576 161.424 24.5576C162.932 24.5576 164.287 23.7308 165.45 22.6689L168.365 15.8477C168.984 14.4017 168.393 12.9531 166.532 12.9531Z" fill="var(--fill-0, #33699A)"/>
<g id="Group_2" opacity="0.68">
<path id="Vector_2" d="M5.375 0.012C4.686 -0.027 4.043 0.032 3.456 0.169C2.876 0.274 2.327 0.509 1.853 0.823C1.113 1.281 0.603 1.889 0.392 2.531C0.141 3.06 0 3.644 0 4.259C0 6.567 1.912 8.432 4.271 8.432C5.92 8.432 7.362 7.515 8.071 6.163C8.561 5.305 9.023 4.298 10.861 3.663C11.911 3.291 13.952 3.272 13.952 3.272C10.653 1.387 7.393 0.086 5.372 0V0.008L5.375 0.012Z" fill="url(#paint0_radial_182_2938)"/>
</g>
<g id="Group_3">
<path id="Vector_3" d="M25.621 9.893C23.721 8.526 21.77 7.198 19.643 6.198C18.644 5.728 17.382 5.164 16.171 4.87C15 4.588 13.632 4.302 12.473 4.706C9.425 5.771 8.794 8.643 9.432 10.355C9.942 11.735 10.992 13.306 13.683 13.462C14.541 13.509 15.372 13.149 16.124 12.906C18.553 12.103 22.385 11.872 25.786 14.05C27.255 14.998 28.246 16.385 28.215 18.164C28.203 18.983 28.066 19.794 27.643 20.519C27.153 21.357 26.405 22.121 25.672 22.756C26.793 22.051 27.921 21.29 28.952 20.46C30.053 19.57 31.252 18.379 31.381 16.902C31.51 15.476 30.343 14.117 29.422 13.141C28.282 11.93 26.973 10.865 25.621 9.897V9.893Z" fill="url(#paint1_radial_182_2938)"/>
</g>
<g id="Group_4" opacity="0.68">
<path id="Vector_4" d="M23.573 13.924C25.332 16.24 24.643 19.347 22.112 20.793C19.342 22.387 15.303 20.706 12.693 19.649C10.444 18.595 8.133 19.602 7.153 21.337C6.303 22.842 6.464 24.942 8.344 26.289C11.514 28.566 17.947 25.898 20.807 24.542C22.758 23.625 25.599 21.658 26.257 20.017C27.276 17.458 26.288 14.857 23.577 13.909" fill="url(#paint2_radial_182_2938)"/>
</g>
</g>
<defs>
<radialGradient id="paint0_radial_182_2938" cx="0" cy="0" r="1" gradientUnits="userSpaceOnUse" gradientTransform="translate(111.001 86.9945) scale(10.2142 6.17305)">
<stop stop-color="#E7ECEF"/>
<stop offset="1" stop-color="#6D6E71"/>
</radialGradient>
<radialGradient id="paint1_radial_182_2938" cx="0" cy="0" r="1" gradientUnits="userSpaceOnUse" gradientTransform="translate(143.128 100.395) scale(14.3555 11.8102)">
<stop stop-color="#262262"/>
<stop offset="1" stop-color="#2989CA"/>
</radialGradient>
<radialGradient id="paint2_radial_182_2938" cx="0" cy="0" r="1" gradientUnits="userSpaceOnUse" gradientTransform="translate(138.389 115.072) scale(11.554 7.66845)">
<stop stop-color="#808285"/>
<stop offset="1" stop-color="#E7ECEF"/>
</radialGradient>
</defs>
</svg>
