<svg preserveAspectRatio="none" width="100%" height="100%" overflow="visible" style="display: block;" viewBox="0 0 36 36" fill="none" xmlns="http://www.w3.org/2000/svg">
<g id="4011907171">
<path id="Union" d="M24.1826 2.34857C24.5422 2.14328 25.0005 2.2685 25.2061 2.62787C30.6477 12.1538 30.6476 23.846 25.2061 33.372C25.0006 33.7317 24.5423 33.8567 24.1826 33.6513C23.8231 33.4458 23.6979 32.9875 23.9033 32.6279C29.0815 23.5629 29.0816 12.4369 23.9033 3.37201C23.6981 3.01239 23.8231 2.55396 24.1826 2.34857ZM18.9922 5.49994C19.3514 5.29431 19.8097 5.41822 20.0156 5.77728C24.3521 13.3473 24.3585 22.6478 20.0313 30.2226C19.8258 30.582 19.3673 30.7071 19.0078 30.5019C18.6483 30.2964 18.5241 29.8381 18.7295 29.4785C22.7929 22.3655 22.7869 13.6321 18.7148 6.52337C18.509 6.16407 18.633 5.70593 18.9922 5.49994ZM13.8203 8.66302C14.1808 8.45937 14.6379 8.58589 14.8418 8.94623C18.0192 14.5647 18.0192 21.4361 14.8418 27.0546C14.6379 27.4149 14.1807 27.5414 13.8203 27.3378C13.4598 27.1339 13.3332 26.6769 13.5371 26.3163C16.4554 21.1561 16.4553 14.8448 13.5371 9.68451C13.3332 9.32401 13.4599 8.86697 13.8203 8.66302ZM8.62891 11.829C8.98872 11.6242 9.44633 11.7496 9.65137 12.1093C11.7324 15.7609 11.7324 20.24 9.65137 23.8915C9.44634 24.2513 8.98872 24.3766 8.62891 24.1718C8.26908 23.9667 8.14364 23.5092 8.34863 23.1494C10.1673 19.9581 10.1673 16.0427 8.34863 12.8515C8.14362 12.4916 8.26907 12.0341 8.62891 11.829Z" fill="var(--fill-0, white)"/>
</g>
</svg>
