<svg preserveAspectRatio="none" width="100%" height="100%" overflow="visible" style="display: block;" viewBox="0 0 36 36" fill="none" xmlns="http://www.w3.org/2000/svg">
<g id="89488612">
<path id="Union" d="M11.7002 3.55762C12.0797 3.39221 12.5218 3.56592 12.6875 3.94531C12.8531 4.32489 12.6793 4.7669 12.2998 4.93262C6.61389 7.41343 3.20785 13.2739 3.81933 19.4014L3.89159 19.9951L3.98729 20.585C5.10509 26.6406 10.0078 31.3219 16.1592 32.124L16.7539 32.1895C22.8882 32.7293 28.7092 29.2566 31.125 23.543C31.2865 23.1618 31.7261 22.9833 32.1074 23.1445C32.4887 23.3058 32.6668 23.7456 32.5058 24.127C29.7496 30.6458 22.9838 34.5256 15.9658 33.6123C8.9479 32.6973 3.40031 27.213 2.40624 20.2061L2.32714 19.5498C1.65125 12.777 5.41555 6.29952 11.7002 3.55762ZM19.5713 2.26074C27.0272 3.00731 32.9246 8.90246 33.6728 16.3584C33.8046 17.6736 32.7213 18.6804 31.5019 18.6807L19.5 18.6816C18.2578 18.6816 17.25 17.6739 17.25 16.4316V4.43164C17.2502 3.21276 18.2544 2.12924 19.5713 2.26074ZM19.4219 3.75293C19.0893 3.71999 18.7502 3.99522 18.75 4.43164V16.4316C18.75 16.8454 19.0862 17.1816 19.5 17.1816L31.501 17.1807C31.9371 17.1804 32.2139 16.8393 32.1807 16.5078C31.5036 9.76215 26.1676 4.42839 19.4219 3.75293Z" fill="var(--fill-0, white)"/>
</g>
</svg>
