<svg preserveAspectRatio="none" width="100%" height="100%" overflow="visible" style="display: block;" viewBox="0 0 36 36" fill="none" xmlns="http://www.w3.org/2000/svg">
<g id="995786832">
<path id="Union" d="M20.0996 2.25C20.5138 2.25 20.8496 2.58579 20.8496 3C20.8496 3.41421 20.5138 3.75 20.0996 3.75H9C7.75671 3.75 6.75 4.75671 6.75 6V8.25H9C9.41421 8.25 9.75 8.58579 9.75 9C9.75 9.41421 9.41421 9.75 9 9.75H6.75V14.25H9C9.41421 14.25 9.75 14.5858 9.75 15C9.75 15.4142 9.41421 15.75 9 15.75H6.75V20.25H9C9.41421 20.25 9.75 20.5858 9.75 21C9.75 21.4142 9.41421 21.75 9 21.75H6.75V26.25H9C9.41421 26.25 9.75 26.5858 9.75 27C9.75 27.4142 9.41421 27.75 9 27.75H6.75V30C6.75 31.2433 7.75671 32.25 9 32.25H27C28.2433 32.25 29.25 31.2433 29.25 30V18.9004C29.25 18.4862 29.5858 18.1504 30 18.1504C30.4142 18.1504 30.75 18.4862 30.75 18.9004V30C30.75 32.0717 29.0717 33.75 27 33.75H9C6.92829 33.75 5.25 32.0717 5.25 30V27.75H3C2.58579 27.75 2.25 27.4142 2.25 27C2.25 26.5858 2.58579 26.25 3 26.25H5.25V21.75H3C2.58579 21.75 2.25 21.4142 2.25 21C2.25 20.5858 2.58579 20.25 3 20.25H5.25V15.75H3C2.58579 15.75 2.25 15.4142 2.25 15C2.25 14.5858 2.58579 14.25 3 14.25H5.25V9.75H3C2.58579 9.75 2.25 9.41421 2.25 9C2.25 8.58579 2.58579 8.25 3 8.25H5.25V6C5.25 3.92829 6.92829 2.25 9 2.25H20.0996ZM27.1787 3.26367C28.7243 1.86877 31.1079 1.91538 32.5977 3.40332L32.7373 3.5498C34.134 5.09547 34.0881 7.48205 32.5977 8.9707L32.5967 8.96973L25.0781 16.4834C24.6325 16.9289 24.083 17.2561 23.4766 17.4326V17.4316L19.1748 18.6855L19.1758 18.6865C18.6456 18.844 18.0783 18.6933 17.6924 18.3105L17.6904 18.3086C17.3021 17.9201 17.16 17.3529 17.3115 16.8291V16.8271L18.5674 12.5225L18.6406 12.2988C18.8272 11.7826 19.1254 11.3112 19.5156 10.9209L27.0312 3.40332L27.1787 3.26367ZM31.5371 4.46387C30.6444 3.57261 29.2337 3.51678 28.2764 4.29688L28.0918 4.46387L20.5771 11.9814C20.3094 12.2492 20.1135 12.5806 20.0078 12.9424L18.752 17.248L23.0566 15.9922H23.0576C23.4199 15.8867 23.7493 15.6911 24.0176 15.4229L31.5371 7.90918L31.7051 7.72363C32.4852 6.76769 32.4296 5.3565 31.5371 4.46387Z" fill="var(--fill-0, white)"/>
</g>
</svg>
